<?xml version="1.0" encoding="UTF-8" standalone="no"?>
<!-- Uploaded to: SVG Repo, www.svgrepo.com, Generator: SVG Repo Mixer Tools -->

<svg
   fill="#000000"
   width="16"
   height="16"
   viewBox="0 0 16 16"
   version="1.1"
   id="svg1"
   sodipodi:docname="text-align-right.svg"
   inkscape:version="1.4.2 (ebf0e940, 2025-05-08)"
   xmlns:inkscape="http://www.inkscape.org/namespaces/inkscape"
   xmlns:sodipodi="http://sodipodi.sourceforge.net/DTD/sodipodi-0.dtd"
   xmlns="http://www.w3.org/2000/svg"
   xmlns:svg="http://www.w3.org/2000/svg">
  <defs
     id="defs1" />
  <sodipodi:namedview
     id="namedview1"
     pagecolor="#505050"
     bordercolor="#eeeeee"
     borderopacity="1"
     inkscape:showpageshadow="0"
     inkscape:pageopacity="0"
     inkscape:pagecheckerboard="0"
     inkscape:deskcolor="#505050"
     inkscape:zoom="9.7900405"
     inkscape:cx="22.216456"
     inkscape:cy="12.665933"
     inkscape:window-width="1344"
     inkscape:window-height="687"
     inkscape:window-x="0"
     inkscape:window-y="34"
     inkscape:window-maximized="0"
     inkscape:current-layer="svg1" />
  <path
     d="M 0.5,2.5 C 0.2238576,2.5 0,2.2761424 0,2 0,1.7238576 0.2238576,1.5 0.5,1.5 h 15 c 0.276142,0 0.5,0.2238576 0.5,0.5 0,0.2761424 -0.223858,0.5 -0.5,0.5 z m 0,8 C 0.2238576,10.5 0,10.276142 0,10 0,9.723858 0.2238576,9.5 0.5,9.5 h 15 c 0.276142,0 0.5,0.223858 0.5,0.5 0,0.276142 -0.223858,0.5 -0.5,0.5 z m 6,-4 C 6.223858,6.5 6,6.276142 6,6 6,5.723858 6.223858,5.5 6.5,5.5 h 9 c 0.276142,0 0.5,0.223858 0.5,0.5 0,0.276142 -0.223858,0.5 -0.5,0.5 z m 0,8 C 6.223858,14.5 6,14.276142 6,14 6,13.723858 6.223858,13.5 6.5,13.5 h 9 c 0.276142,0 0.5,0.223858 0.5,0.5 0,0.276142 -0.223858,0.5 -0.5,0.5 z"
     id="path1"
     style="fill:#ffffff" />
</svg>
