<?xml version="1.0" encoding="UTF-8" standalone="no"?>
<!-- Uploaded to: SVG Repo, www.svgrepo.com, Generator: SVG Repo Mixer Tools -->

<svg
   fill="#000000"
   width="16"
   height="16"
   viewBox="0 0 16 16"
   version="1.1"
   id="svg1"
   sodipodi:docname="text-align-left.svg"
   inkscape:version="1.4.2 (ebf0e940, 2025-05-08)"
   xmlns:inkscape="http://www.inkscape.org/namespaces/inkscape"
   xmlns:sodipodi="http://sodipodi.sourceforge.net/DTD/sodipodi-0.dtd"
   xmlns="http://www.w3.org/2000/svg"
   xmlns:svg="http://www.w3.org/2000/svg">
  <defs
     id="defs1" />
  <sodipodi:namedview
     id="namedview1"
     pagecolor="#505050"
     bordercolor="#eeeeee"
     borderopacity="1"
     inkscape:showpageshadow="0"
     inkscape:pageopacity="0"
     inkscape:pagecheckerboard="0"
     inkscape:deskcolor="#505050"
     inkscape:zoom="11.142778"
     inkscape:cx="9.6475048"
     inkscape:cy="10.634691"
     inkscape:window-width="1168"
     inkscape:window-height="620"
     inkscape:window-x="0"
     inkscape:window-y="34"
     inkscape:window-maximized="0"
     inkscape:current-layer="svg1" />
  <path
     d="M 0.5,2.5 C 0.2238576,2.5 0,2.2761424 0,2 0,1.7238576 0.2238576,1.5 0.5,1.5 h 15 c 0.276142,0 0.5,0.2238576 0.5,0.5 0,0.2761424 -0.223858,0.5 -0.5,0.5 z m 0,8 C 0.2238576,10.5 0,10.276142 0,10 0,9.723858 0.2238576,9.5 0.5,9.5 h 15 c 0.276142,0 0.5,0.223858 0.5,0.5 0,0.276142 -0.223858,0.5 -0.5,0.5 z m 0,-4 C 0.2238576,6.5 0,6.276142 0,6 0,5.723858 0.2238576,5.5 0.5,5.5 h 9 C 9.776142,5.5 10,5.723858 10,6 10,6.276142 9.776142,6.5 9.5,6.5 Z m 0,8 C 0.2238576,14.5 0,14.276142 0,14 0,13.723858 0.2238576,13.5 0.5,13.5 h 9 c 0.276142,0 0.5,0.223858 0.5,0.5 0,0.276142 -0.223858,0.5 -0.5,0.5 z"
     id="path1"
     style="fill:#ffffff" />
</svg>
