<?xml version="1.0" encoding="UTF-8" standalone="no"?>
<!-- Uploaded to: SVG Repo, www.svgrepo.com, Generator: SVG Repo Mixer Tools -->

<svg
   width="10"
   height="10"
   viewBox="0 0 16 16"
   version="1.1"
   id="svg1"
   sodipodi:docname="plus-svgrepo-com.svg"
   inkscape:version="1.4.2 (ebf0e940, 2025-05-08)"
   xmlns:inkscape="http://www.inkscape.org/namespaces/inkscape"
   xmlns:sodipodi="http://sodipodi.sourceforge.net/DTD/sodipodi-0.dtd"
   xmlns="http://www.w3.org/2000/svg"
   xmlns:svg="http://www.w3.org/2000/svg"
   xmlns:rdf="http://www.w3.org/1999/02/22-rdf-syntax-ns#"
   xmlns:cc="http://creativecommons.org/ns#"
   xmlns:dc="http://purl.org/dc/elements/1.1/"
   xmlns:sketch="http://www.bohemiancoding.com/sketch/ns">
  <sodipodi:namedview
     id="namedview1"
     pagecolor="#505050"
     bordercolor="#eeeeee"
     borderopacity="1"
     inkscape:showpageshadow="0"
     inkscape:pageopacity="0"
     inkscape:pagecheckerboard="0"
     inkscape:deskcolor="#505050"
     inkscape:zoom="13.74405"
     inkscape:cx="26.520568"
     inkscape:cy="6.9484615"
     inkscape:window-width="1512"
     inkscape:window-height="920"
     inkscape:window-x="0"
     inkscape:window-y="34"
     inkscape:window-maximized="0"
     inkscape:current-layer="svg1" />
  <title
     id="title1">plus</title>
  <desc
     id="desc1">Created with Sketch Beta.</desc>
  <defs
     id="defs1" />
  <g
     id="Page-1"
     stroke="none"
     stroke-width="1"
     fill="none"
     fill-rule="evenodd"
     sketch:type="MSPage"
     style="fill:#ffffff"
     transform="scale(0.5)">
    <g
       id="Icon-Set-Filled"
       sketch:type="MSLayerGroup"
       transform="translate(-362,-1037)"
       fill="#000000"
       style="fill:#ffffff">
      <path
         d="m 390,1049 h -8 v -8 c 0,-2.21 -1.791,-4 -4,-4 -2.209,0 -4,1.79 -4,4 v 8 h -8 c -2.209,0 -4,1.79 -4,4 0,2.21 1.791,4 4,4 h 8 v 8 c 0,2.21 1.791,4 4,4 2.209,0 4,-1.79 4,-4 v -8 h 8 c 2.209,0 4,-1.79 4,-4 0,-2.21 -1.791,-4 -4,-4"
         id="plus"
         sketch:type="MSShapeGroup"
         style="fill:#ffffff" />
    </g>
  </g>
  <metadata
     id="metadata1">
    <rdf:RDF>
      <cc:Work
         rdf:about="">
        <dc:title>plus</dc:title>
      </cc:Work>
    </rdf:RDF>
  </metadata>
</svg>
