<?xml version="1.0" encoding="UTF-8" standalone="no"?>
<!-- Uploaded to: SVG Repo, www.svgrepo.com, Generator: SVG Repo Mixer Tools -->

<svg
   fill="#000000"
   width="16"
   height="16"
   viewBox="0 0 16 16"
   version="1.1"
   id="svg1"
   sodipodi:docname="list-number.svg"
   inkscape:version="1.4.2 (ebf0e940, 2025-05-08)"
   xmlns:inkscape="http://www.inkscape.org/namespaces/inkscape"
   xmlns:sodipodi="http://sodipodi.sourceforge.net/DTD/sodipodi-0.dtd"
   xmlns="http://www.w3.org/2000/svg"
   xmlns:svg="http://www.w3.org/2000/svg">
  <defs
     id="defs1" />
  <sodipodi:namedview
     id="namedview1"
     pagecolor="#505050"
     bordercolor="#eeeeee"
     borderopacity="1"
     inkscape:showpageshadow="0"
     inkscape:pageopacity="0"
     inkscape:pagecheckerboard="0"
     inkscape:deskcolor="#505050"
     inkscape:zoom="4.2271703"
     inkscape:cx="53.108814"
     inkscape:cy="24.129617"
     inkscape:window-width="1440"
     inkscape:window-height="817"
     inkscape:window-x="0"
     inkscape:window-y="34"
     inkscape:window-maximized="0"
     inkscape:current-layer="svg1" />
  <path
     d="m 1.730992,4.954835 c 0.309689,0 0.516149,-0.174681 0.516149,-0.532005 V 1.858072 c 0,-0.333507 -0.238204,-0.547895 -0.579639,-0.547895 -0.285873,0 -0.460554,0.09527 -0.659086,0.230277 L 0.452593,1.929523 C 0.28584,2.040714 0.198499,2.14391 0.198499,2.310664 c 0,0.20646 0.166754,0.349396 0.349397,0.349396 0.09527,0 0.150864,-0.01589 0.285839,-0.111157 L 1.198986,2.302736 h 0.008 V 4.42283 c 0,0.357324 0.214388,0.532005 0.524044,0.532005 z M 4.486354,3.994054 h 10.870484 c 0.365252,0 0.643163,-0.277911 0.643163,-0.635235 0,-0.365286 -0.277911,-0.643163 -0.643163,-0.643163 H 4.486354 c -0.357324,0 -0.635235,0.277877 -0.635235,0.643163 0,0.357324 0.277911,0.635235 0.635235,0.635235 z M 0.452593,9.742916 h 2.040681 c 0.222349,0 0.381175,-0.150864 0.381175,-0.373179 0,-0.238239 -0.158826,-0.389103 -0.381175,-0.389103 H 1.357812 V 8.956814 L 2.008937,8.432736 c 0.54786,-0.444664 0.75432,-0.698759 0.75432,-1.16724 0,-0.635236 -0.532005,-1.064011 -1.389589,-1.064011 -0.754321,0 -1.310143,0.397031 -1.310143,0.905219 0,0.254094 0.166753,0.389069 0.436703,0.389069 0.182642,0 0.309689,-0.05556 0.412919,-0.238205 0.111158,-0.190571 0.262022,-0.293801 0.47641,-0.293801 0.238205,0 0.39703,0.150865 0.39703,0.373214 0,0.19057 -0.09527,0.357324 -0.50026,0.682869 L 0.238206,8.877401 C 0.087342,9.004448 0.023818,9.147384 0.023818,9.322099 c 0,0.246133 0.166754,0.420814 0.428775,0.420814 z M 4.486354,8.798025 h 10.870484 c 0.365252,0 0.643163,-0.285873 0.643163,-0.643197 0,-0.35729 -0.277911,-0.635235 -0.643163,-0.635235 H 4.486354 c -0.357324,0 -0.635235,0.277945 -0.635235,0.635235 0,0.357324 0.277911,0.643197 0.635235,0.643197 z m -3.088835,5.891798 c 0.936963,0 1.500713,-0.420847 1.500713,-1.087828 0,-0.436736 -0.309656,-0.738465 -0.857551,-0.786133 v -0.02382 c 0.404959,-0.07145 0.714649,-0.341435 0.714649,-0.801989 0,-0.603456 -0.587601,-0.936963 -1.365773,-0.936963 -0.627274,0 -1.302215,0.2938 -1.302215,0.817878 0,0.222315 0.158791,0.381141 0.404958,0.381141 0.174681,0 0.254094,-0.07148 0.365252,-0.19057 0.182642,-0.198499 0.333507,-0.262056 0.524077,-0.262056 0.246133,0 0.428775,0.119119 0.428775,0.357324 0,0.222349 -0.182642,0.333507 -0.508188,0.333507 h -0.09527 c -0.222349,0 -0.365252,0.111158 -0.365252,0.341435 0,0.214387 0.134975,0.341434 0.365252,0.341434 h 0.10323 c 0.357324,0 0.547895,0.11912 0.547895,0.365286 0,0.214388 -0.198533,0.373179 -0.460554,0.373179 -0.285873,0 -0.484372,-0.158791 -0.635236,-0.309656 C 0.666981,13.514622 0.5876,13.451094 0.444664,13.451094 0.182608,13.451094 -9.9999999e-7,13.601992 -9.9999999e-7,13.848125 -9.9999999e-7,14.39602 0.746392,14.68982 1.397517,14.68982 Z m 3.088835,-1.095789 h 10.870484 c 0.365252,0 0.643163,-0.277911 0.643163,-0.635235 0,-0.365252 -0.277911,-0.643163 -0.643163,-0.643163 H 4.486354 c -0.357324,0 -0.635235,0.277911 -0.635235,0.643163 0,0.357324 0.277911,0.635235 0.635235,0.635235 z"
     id="path1"
     style="fill:#ffffff;stroke-width:0.338792" />
</svg>
