<?xml version="1.0" encoding="UTF-8" standalone="no"?>
<!-- Uploaded to: SVG Repo, www.svgrepo.com, Generator: SVG Repo Mixer Tools -->

<svg
   fill="#FFFF"
   width="16"
   height="16"
   viewBox="0 0 16 16"
   version="1.1"
   preserveAspectRatio="xMidYMid"
   id="svg5"
   sodipodi:docname="strikethrough-svgrepo-com.svg"
   inkscape:version="1.4.2 (ebf0e940, 2025-05-08)"
   xmlns:inkscape="http://www.inkscape.org/namespaces/inkscape"
   xmlns:sodipodi="http://sodipodi.sourceforge.net/DTD/sodipodi-0.dtd"
   xmlns="http://www.w3.org/2000/svg"
   xmlns:svg="http://www.w3.org/2000/svg"
   xmlns:rdf="http://www.w3.org/1999/02/22-rdf-syntax-ns#"
   xmlns:cc="http://creativecommons.org/ns#"
   xmlns:dc="http://purl.org/dc/elements/1.1/">
  <defs
     id="defs5" />
  <sodipodi:namedview
     id="namedview5"
     pagecolor="#505050"
     bordercolor="#eeeeee"
     borderopacity="1"
     inkscape:showpageshadow="0"
     inkscape:pageopacity="0"
     inkscape:pagecheckerboard="0"
     inkscape:deskcolor="#505050"
     inkscape:zoom="24.556541"
     inkscape:cx="8.0426637"
     inkscape:cy="9.4679459"
     inkscape:window-width="1512"
     inkscape:window-height="920"
     inkscape:window-x="0"
     inkscape:window-y="34"
     inkscape:window-maximized="0"
     inkscape:current-layer="svg5" />
  <title
     id="title1">strikethrough-line</title>
  <g
     id="g5"
     transform="matrix(0.47222222,0,0,0.47222222,-0.49999996,-0.49999996)">
    <path
       d="m 32.88,19.92 h -30 a 1,1 0 1 1 0,-2 h 30 a 1,1 0 0 1 0,2 z"
       class="clr-i-outline clr-i-outline-path-1"
       id="path1"
       style="fill:#ffffff" />
    <path
       d="M 7.27,15.86 A 12.9,12.9 0 0 1 8.56,15.34 5.69,5.69 0 0 1 10.39,15 3.18,3.18 0 0 1 13.14,16.11 4.44,4.44 0 0 1 14,18.85 v 0.49 A 13.83,13.83 0 0 0 9.71,18.6 6.19,6.19 0 0 0 7.12,19.14 5,5 0 0 0 5.81,20 h 10.07 v -1.15 a 5.67,5.67 0 0 0 -1.37,-4 5.16,5.16 0 0 0 -4,-1.49 10,10 0 0 0 -3.91,0.88 0.87,0.87 0 0 0 -0.44,1.18 0.84,0.84 0 0 0 1.11,0.44 z"
       class="clr-i-outline clr-i-outline-path-2"
       id="path2"
       style="fill:#ffffff" />
    <path
       d="m 21,20 a 5.94,5.94 0 0 1 0.54,-2.31 4.35,4.35 0 0 1 1.58,-1.83 4.27,4.27 0 0 1 4.59,0 4.47,4.47 0 0 1 1.57,1.83 6.12,6.12 0 0 1 0.57,2.31 h 2 a 7.73,7.73 0 0 0 -0.78,-3.19 6,6 0 0 0 -2.18,-2.45 5.74,5.74 0 0 0 -3.1,-0.88 5.39,5.39 0 0 0 -2.8,0.73 5.55,5.55 0 0 0 -2,2.05 V 10 A 0.87,0.87 0 0 0 20.13,9.14 H 20 A 0.87,0.87 0 0 0 19.14,10 v 10 z"
       class="clr-i-outline clr-i-outline-path-3"
       id="path3"
       style="fill:#ffffff" />
    <path
       d="m 29.67,22 a 5.61,5.61 0 0 1 -0.36,1.07 4.47,4.47 0 0 1 -1.57,1.85 4.32,4.32 0 0 1 -4.59,0 A 4.35,4.35 0 0 1 21.57,23.07 5.64,5.64 0 0 1 21.2,22 h -2.11 v 4.13 A 0.87,0.87 0 0 0 20,27 h 0.2 a 0.87,0.87 0 0 0 0.86,-0.86 v -1.63 a 5.58,5.58 0 0 0 2,2.06 5.48,5.48 0 0 0 2.8,0.72 5.66,5.66 0 0 0 3.1,-0.88 5.88,5.88 0 0 0 2.13,-2.41 7.09,7.09 0 0 0 0.64,-2 z"
       class="clr-i-outline clr-i-outline-path-4"
       id="path4"
       style="fill:#ffffff" />
    <path
       d="m 14,22 v 0.76 a 3.34,3.34 0 0 1 -1.62,2 5.34,5.34 0 0 1 -2.69,0.72 3.78,3.78 0 0 1 -2.36,-0.7 2.24,2.24 0 0 1 -0.94,-1.9 2.29,2.29 0 0 1 0.2,-0.91 H 4.62 a 4,4 0 0 0 -0.13,1 3.83,3.83 0 0 0 1.35,3.06 5.15,5.15 0 0 0 3.47,1.17 6,6 0 0 0 2.69,-0.63 4.62,4.62 0 0 0 2,-1.74 V 26 a 0.86,0.86 0 0 0 0.86,0.86 H 15 A 0.86,0.86 0 0 0 15.86,26 v -4 z"
       class="clr-i-outline clr-i-outline-path-5"
       id="path5"
       style="fill:#ffffff" />
    <rect
       x="0"
       y="0"
       width="36"
       height="36"
       fill-opacity="0"
       id="rect5"
       style="fill:#ffffff" />
  </g>
  <metadata
     id="metadata5">
    <rdf:RDF>
      <cc:Work
         rdf:about="">
        <dc:title>strikethrough-line</dc:title>
      </cc:Work>
    </rdf:RDF>
  </metadata>
</svg>
