<?xml version="1.0" encoding="UTF-8" standalone="no"?>
<!-- Uploaded to: SVG Repo, www.svgrepo.com, Generator: SVG Repo Mixer Tools -->

<svg
   width="16"
   height="16"
   viewBox="0 0 16 16"
   fill="none"
   version="1.1"
   id="svg4"
   sodipodi:docname="text-clear-formatting-svgrepo-com.svg"
   inkscape:version="1.4.2 (ebf0e940, 2025-05-08)"
   xmlns:inkscape="http://www.inkscape.org/namespaces/inkscape"
   xmlns:sodipodi="http://sodipodi.sourceforge.net/DTD/sodipodi-0.dtd"
   xmlns="http://www.w3.org/2000/svg"
   xmlns:svg="http://www.w3.org/2000/svg">
  <defs
     id="defs4" />
  <sodipodi:namedview
     id="namedview4"
     pagecolor="#505050"
     bordercolor="#eeeeee"
     borderopacity="1"
     inkscape:showpageshadow="0"
     inkscape:pageopacity="0"
     inkscape:pagecheckerboard="0"
     inkscape:deskcolor="#505050"
     inkscape:zoom="21.808022"
     inkscape:cx="10.386086"
     inkscape:cy="10.61536"
     inkscape:window-width="1512"
     inkscape:window-height="920"
     inkscape:window-x="0"
     inkscape:window-y="34"
     inkscape:window-maximized="0"
     inkscape:current-layer="svg4" />
  <g
     id="g4"
     transform="matrix(0.76188661,0,0,0.76188661,-1.5237732,-1.5244816)">
    <path
       d="m 2.76142,14.0012 c -0.21996,0 -0.40327,-0.0599 -0.54991,-0.1795 C 2.0705,13.6966 2,13.5416 2,13.3567 2,13.2479 2.03102,13.112 2.09306,12.9488 L 6.01861,2.71088 C 6.1991,2.23773 6.53187,2.00116 7.01692,2.00116 c 0.45685,0 0.77552,0.23385 0.95601,0.70156 L 11.9069,12.9488 C 11.969,13.112 12,13.2479 12,13.3567 c 0,0.1849 -0.0733,0.3399 -0.22,0.465 -0.141,0.1196 -0.3215,0.1795 -0.5414,0.1795 -0.361,0 -0.6092,-0.1877 -0.7445,-0.5629 L 9.41117,10.5178 h -4.8308 l -1.07445,2.9205 c -0.13536,0.3752 -0.38353,0.5629 -0.7445,0.5629 z M 5.0203,9.26968 H 8.9797 L 7.02538,3.90191 H 6.97462 Z"
       fill="#212121"
       id="path1"
       style="fill:#ffffff" />
    <path
       d="m 12.7906,14.73 5.4811,5.4811 4.1566,-4.1566 c 0.7623,-0.7623 0.763,-1.9975 0.0017,-2.7588 l -2.724,-2.724 C 19.5655,10.4312 19.4088,10.3166 19.2419,10.228 18.5048,9.83662 17.5688,9.95186 16.9473,10.5734 Z"
       fill="#212121"
       id="path2"
       style="fill:#ffffff" />
    <path
       d="M 14.7485,11.3579 13,13.1065 V 2.75572 c 0,-0.22177 0.0649,-0.40297 0.1947,-0.54361 0.1353,-0.14063 0.3056,-0.21095 0.5112,-0.21095 0.2055,0 0.3732,0.07032 0.503,0.21095 0.1353,0.14064 0.2029,0.32184 0.2029,0.54361 v 4.07303 h 0.0324 c 0.2705,-0.48682 0.641,-0.86816 1.1116,-1.14402 0.476,-0.27586 1.0088,-0.41379 1.5984,-0.41379 1.0655,0 1.9256,0.39756 2.5801,1.19269 0.6545,0.79514 0.9817,1.85261 0.9817,3.17242 0,0.17605 -0.0058,0.34743 -0.0173,0.51415 L 20.4131,9.86462 C 20.0754,9.5269 19.6763,9.28834 19.2517,9.14878 19.1889,8.41719 18.9793,7.81964 18.6227,7.35613 18.19,6.79359 17.6004,6.51232 16.854,6.51232 c -0.7194,0 -1.309,0.28938 -1.7688,0.86815 -0.4544,0.57336 -0.6815,1.32522 -0.6815,2.25558 0,0.66565 0.1149,1.23965 0.3448,1.72185 z"
       fill="#212121"
       id="path3"
       style="fill:#ffffff" />
    <path
       d="m 17.211,21.2717 -5.481,-5.481 -1.1573,1.1573 c -0.76228,0.7623 -0.76305,1.9974 -0.0017,2.7588 l 2.7239,2.7239 c 0.3372,0.3372 0.7673,0.5249 1.208,0.5632 l -0.0024,0.0073 h 5.5014 c 0.4142,0 0.75,-0.3358 0.75,-0.75 0,-0.4142 -0.3358,-0.75 -0.75,-0.75 h -3.0204 z"
       fill="#212121"
       id="path4"
       style="fill:#ffffff" />
  </g>
</svg>
