<?xml version="1.0" encoding="UTF-8" standalone="no"?>
<!-- Uploaded to: SVG Repo, www.svgrepo.com, Generator: SVG Repo Mixer Tools -->

<svg
   fill="#000000"
   width="13.333"
   height="16"
   viewBox="0 0 13.333 16"
   id="icon"
   version="1.1"
   sodipodi:docname="text-color.svg"
   inkscape:version="1.4.2 (ebf0e940, 2025-05-08)"
   xmlns:inkscape="http://www.inkscape.org/namespaces/inkscape"
   xmlns:sodipodi="http://sodipodi.sourceforge.net/DTD/sodipodi-0.dtd"
   xmlns="http://www.w3.org/2000/svg"
   xmlns:svg="http://www.w3.org/2000/svg"
   xmlns:rdf="http://www.w3.org/1999/02/22-rdf-syntax-ns#"
   xmlns:cc="http://creativecommons.org/ns#"
   xmlns:dc="http://purl.org/dc/elements/1.1/">
  <sodipodi:namedview
     id="namedview2"
     pagecolor="#505050"
     bordercolor="#eeeeee"
     borderopacity="1"
     inkscape:showpageshadow="0"
     inkscape:pageopacity="0"
     inkscape:pagecheckerboard="0"
     inkscape:deskcolor="#505050"
     inkscape:zoom="18.297145"
     inkscape:cx="9.3730468"
     inkscape:cy="10.41146"
     inkscape:window-width="1512"
     inkscape:window-height="920"
     inkscape:window-x="0"
     inkscape:window-y="34"
     inkscape:window-maximized="0"
     inkscape:current-layer="icon"
     showguides="true" />
  <defs
     id="defs1">
    <style
       id="style1">.cls-1{fill:none;}</style>
  </defs>
  <title
     id="title1">text-color</title>
  <path
     d="m 11.162808,12.779114 h 1.498767 L 7.4158845,0.0395817 H 5.9171156 L 0.67142557,12.779114 H 2.1701941 L 3.3767028,9.7815779 H 9.926323 Z M 3.9911981,8.2828091 6.5690799,2.0104626 H 6.7639201 L 9.31932,8.2828091 Z"
     id="path1"
     style="fill:#ffffff;stroke-width:0.749385" />
  <rect
     x="0.023133965"
     y="13.333333"
     width="13.307755"
     height="2.6666667"
     id="rect1"
     style="fill:#ff0000;stroke-width:0.666027" />
  <rect
     class="cls-1"
     width="16"
     height="16"
     id="rect2"
     x="0"
     y="0"
     style="stroke-width:0.5" />
  <metadata
     id="metadata2">
    <rdf:RDF>
      <cc:Work
         rdf:about="">
        <dc:title>text-color</dc:title>
      </cc:Work>
    </rdf:RDF>
  </metadata>
  <path
     d="M 14.555418,3.0566184 11.731751,0.23454936 c -0.309867,-0.310412 -0.812174,-0.312553 -1.124675,-0.0048 L 3.6833004,7.0456974 C 3.5753757,7.1525204 3.4997902,7.2876334 3.465235,7.4354994 l -0.8179449,3.5441626 -1.436995,1.801236 h 2.2589338 l 0.9122003,-0.901816 2.8660029,-0.661385 c 0.143779,-0.03355 0.275577,-0.106237 0.381015,-0.209279 L 14.551424,4.1908784 c 0.316138,-0.311352 0.317931,-0.820689 0.004,-1.13426 z m -7.483717,6.256801 -1.6942002,-1.693403 5.7855222,-5.69606 1.693402,1.693402 z"
     id="path1-9"
     sodipodi:nodetypes="cccccccccccccccccc"
     style="display:none;fill:#ffffff;stroke-width:0.798774" />
</svg>
